# xmcd
#
# Track frame offsets:
#	150
#	22943
#	37861
#	56494
#	73958
#	93499
#	113277
#	131811
#	151513
#	172798
#	189782
#	200864
#	225877
#	245085
#
# Disc length: 3581 seconds
#
# Revision: 2
# Processed by: cddbd v1.5.2PL0 Copyright (c) Steve Scherf et al.
# Submitted via: EasyCDDAExtractor 15.3.0.1
#
DISCID=a50dfb0e
DTITLE=Ricardo Arjona - Solo Para Mujeres
DYEAR=2013
DGENRE=Latin
TTITLE0=Señora De Las Cuatro Decadas
TTITLE1=Amor De Tele
TTITLE2=Te Conozco
TTITLE3=Realmente No Estoy Tan Solo
TTITLE4=Cuando
TTITLE5=Pensar En Ti
TTITLE6=Se Nos Muere El Amor
TTITLE7=Cita En El Bar
TTITLE8=Me Enseñaste
TTITLE9=Primera Vez
TTITLE10=Tiempo En Una Botella
TTITLE11=Olvidarte
TTITLE12=Desnuda
TTITLE13=Hoy Es Un Buen Dia Para Empezar
EXTD=
EXTT0=
EXTT1=
EXTT2=
EXTT3=
EXTT4=
EXTT5=
EXTT6=
EXTT7=
EXTT8=
EXTT9=
EXTT10=
EXTT11=
EXTT12=
EXTT13=
PLAYORDER=
